<svg
    xmlns="http://www.w3.org/2000/svg"
    xmlSpace="preserve"
    id="Capa_1"
    viewBox="0 0 660 478.6" 
  >
    <g id="_x31__x5F_L_x5F_L_x5F_B" className="st0">
      <path
        d="M105.9 351.3c0 10.2 2.8 15.4 2.8 24.8s-6.8 29.4-6.8 38.4 4.9 39.6.1 49.6c-2.4 5-18.4 3.7-23.5.1-6.1-4.3 9.4-22.2 9.4-36.5s-11-49.8-11-60.7c0 11.1 29 9.7 29-15.7z"
        className="st1"
      />
    </g>
    <g id="_x31__x5F_R_x5F_L_x5F_B" className="st0">
      <path
        d="M117.3 351.2c0 10.2-2.8 15.4-2.8 24.8s6.8 29.4 6.8 38.4-4.9 39.6-.1 49.6c2.4 5 18.4 3.7 23.5.1 6.1-4.3-9.4-22.2-9.4-36.5s11-49.6 11-60.6c.1 11.2-29 9.7-29-15.8z"
        className="st1"
      />
    </g>
    <g id="_x31__x5F_L_x5F_L_x5F_C" className="st0">
      <path
        d="M69.2 286.5s10.5 21.7 22 21.7c7.3 0 15.4-2.2 15.4-13.6 0 5.9 1.8 18 1.8 26.4 0 8.8-2.4 20.1-2.4 30.3 0 25.5-29 26.9-29 15.7 0-10.9 4.9-25.5 4.9-37.2s-4.8-20-12.7-43.3z"
        className="st1"
      />
    </g>
    <g id="_x31__x5F_R_x5F_L_x5F_T" className="st0">
      <path
        d="M150.1 202.9s11.9 60.3 4 83.6c0 0-10.5 21.7-22 21.7-7.3 0-15.5-2.2-15.5-13.6 0-7.5-5-30.6-5-44.5 0-5.7.7-12.8 5.6-20.3 6-9 8.7-11.7 8.7-11.7 15-4.6 24.2-15.2 24.2-15.2z"
        className="st2"
      />
      <path
        d="M150.1 202.9s11.9 60.3 4 83.6c0 0-10.5 21.7-22 21.7-7.3 0-15.5-2.2-15.5-13.6 0-7.5-5-30.6-5-44.5 0-5.7.7-12.8 5.6-20.3 6-9 8.7-11.7 8.7-11.7 15-4.6 24.2-15.2 24.2-15.2z"
        className="st3"
      />
    </g>
    <g id="_x31__x5F_L_x5F_L_x5F_T" className="st0">
      <path
        d="M97.3 218.1s2.7 2.8 8.7 11.7c4.9 7.4 5.6 14.5 5.6 20.3 0 13.9-5 37-5 44.5 0 11.4-8.2 13.6-15.4 13.6-11.5 0-22-21.7-22-21.7-7.9-23.3 4-83.6 4-83.6s9.2 10.5 24.1 15.2z"
        className="st2"
      />
      <path
        d="M97.3 218.1s2.7 2.8 8.7 11.7c4.9 7.4 5.6 14.5 5.6 20.3 0 13.9-5 37-5 44.5 0 11.4-8.2 13.6-15.4 13.6-11.5 0-22-21.7-22-21.7-7.9-23.3 4-83.6 4-83.6s9.2 10.5 24.1 15.2z"
        className="st3"
      />
    </g>
    <g id="_x31__x5F_H" className="st0">
      <path
        d="M111.6 72.9c-14.8 0-20.2-23.8-24-26.9-2.5-2-2.9-8.1-2-9 1-1 4.3 0 4.3 0s-2.2-26.9 21.6-26.9S133.2 37 133.2 37s3.4-1 4.3 0 .5 7.2-2 9c-3.8 3-9 26.9-23.9 26.9z"
        className="st1"
      />
    </g>
    <g id="_x31__x5F_T_x5F_C" className="st0">
      <path
        d="M111.6 109c0 47.6 33.6 92.9 36.2 73.2-.2 7.7 1 13.7 2.3 20.8 0 0-9.3 10.5-24.2 15.2-4.2 1.3-9.2 2.2-14.3 2.2-5.2 0-10-.8-14.3-2.2-14.8-4.7-24.1-15.1-24.1-15.1 1.3-7.2 2.4-13 2.2-20.8 2.6 19.6 36.2-25.8 36.2-73.3"
        className="st1"
      />
    </g>
    <g id="_x31__x5F_N" className="st0">
      <path
        d="M95.9 61c3.6 6.2 8.6 11.8 15.8 11.8 7.3 0 12.1-5.6 15.8-11.8v13.3c0 4.6 19.1 12.2 29.8 18.6-13.2-7.9-45.6-13.8-45.6 15.9 0-29.7-32.4-23.8-45.6-15.9 10.7-6.4 29.8-14.1 29.8-18.6V61z"
        className="st1"
      />
    </g>
    <g id="_x31__x5F_R_x5F_L_x5F_C" className="st0">
      <path
        d="M117.3 351.2c0-10.2-2.5-21.6-2.5-30.3 0-8.3 1.8-20.5 1.8-26.4 0 11.4 8.2 13.6 15.5 13.6 11.5 0 22-21.7 22-21.7-7.9 23.3-12.7 31.7-12.7 43.2s5 26.3 5 37.3c0 11.2-29.1 9.8-29.1-15.7z"
        className="st1"
      />
    </g>
    <g id="_x31__x5F_T_x5F_R" className="st0">
      <path
        d="M148.2 125.3c0-18.2 25-21.3 25-2.6 0-11.5-5.1-23.3-15.8-29.7-13.2-7.9-45.7-13.7-45.7 16 0 47.6 33.6 92.9 36.2 73.2.1-5.3.9-11.6 2.5-19.7 0-10.4-2.2-37.2-2.2-37.2z"
        className="st2"
      />
      <path
        d="M148.2 125.3c0-18.2 25-21.3 25-2.6 0-11.5-5.1-23.3-15.8-29.7-13.2-7.9-45.7-13.7-45.7 16 0 47.6 33.6 92.9 36.2 73.2.1-5.3.9-11.6 2.5-19.7 0-10.4-2.2-37.2-2.2-37.2z"
        className="st3"
      />
    </g>
    <g id="_x31__x5F_A_x5F_R" className="st0">
      <path
        d="M150.4 162.4c0-10.3-2.2-37.1-2.2-37.1 0-18.2 25-21.3 25-2.6 0 11.5.7 36 1.7 42.1 3.1 20.1 17.4 60.8 22.2 71.2 4.1 9.1 13.4 17 15.5 20.9 2.1 3.9.3 8.7-5.7 2.1v18.1c0 4.7-5 6.2-5 0v-12.5V280c0 4.1-4.7 5-4.7-.3v-15.2 14c0 3.8-4.1 5.5-4.1.4v-14.4V277c0 4.3-4 5.9-4 0v-13.5 7c0 8.9-3.4 10.1-4 4.3-.4-3.7-4.2-21.4-3.9-30.3.2-5.6-1.4-8.1-3.9-12.7-16.6-29.6-26.9-49.9-26.9-69.4"
        className="st2"
      />
      <path
        d="M150.4 162.4c0-10.3-2.2-37.1-2.2-37.1 0-18.2 25-21.3 25-2.6 0 11.5.7 36 1.7 42.1 3.1 20.1 17.4 60.8 22.2 71.2 4.1 9.1 13.4 17 15.5 20.9 2.1 3.9.3 8.7-5.7 2.1v18.1c0 4.7-5 6.2-5 0v-12.5V280c0 4.1-4.7 5-4.7-.3v-15.2 14c0 3.8-4.1 5.5-4.1.4v-14.4V277c0 4.3-4 5.9-4 0v-13.5 7c0 8.9-3.4 10.1-4 4.3-.4-3.7-4.2-21.4-3.9-30.3.2-5.6-1.4-8.1-3.9-12.7-16.6-29.6-26.9-49.9-26.9-69.4"
        className="st3"
      />
    </g>
    <g id="_x31__x5F_T_x5F_L" className="st0">
      <path
        d="M72.9 162.4c1.6 8.1 2.4 14.4 2.5 19.7 2.6 19.7 36.2-25.6 36.2-73.2 0-29.7-32.5-23.9-45.7-16-10.7 6.4-15.8 18.2-15.8 29.7 0-18.6 25-15.6 25 2.6 0 .1-2.2 26.9-2.2 37.2z"
        className="st2"
      />
      <path
        d="M72.9 162.4c1.6 8.1 2.4 14.4 2.5 19.7 2.6 19.7 36.2-25.6 36.2-73.2 0-29.7-32.5-23.9-45.7-16-10.7 6.4-15.8 18.2-15.8 29.7 0-18.6 25-15.6 25 2.6 0 .1-2.2 26.9-2.2 37.2z"
        className="st3"
      />
    </g>
    <g id="_x31__x5F_A_x5F_L" className="st0">
      <path
        d="M72.9 162.4c0 19.5-10.4 39.8-26.7 69.4-2.5 4.6-4.1 7-3.9 12.7.3 9-3.5 26.7-3.9 30.3-.7 5.7-4 4.6-4-4.3v-7V277c0 5.9-4 4.3-4 0v-12.5 14.4c0 5.1-4.1 3.4-4.1-.4v-14 15.2c0 5.3-4.7 4.4-4.7.3v-15.4 12.5c0 6.2-5 4.7-5 0V259c-6.1 6.6-7.8 1.8-5.7-2.1s11.4-11.8 15.5-20.9c4.8-10.4 19-51.1 22.2-71.2 1-6.2 1.7-30.6 1.7-42.1 0-18.6 25-15.6 25 2.6-.2 0-2.4 26.8-2.4 37.1"
        className="st2"
      />
      <path
        d="M72.9 162.4c0 19.5-10.4 39.8-26.7 69.4-2.5 4.6-4.1 7-3.9 12.7.3 9-3.5 26.7-3.9 30.3-.7 5.7-4 4.6-4-4.3v-7V277c0 5.9-4 4.3-4 0v-12.5 14.4c0 5.1-4.1 3.4-4.1-.4v-14 15.2c0 5.3-4.7 4.4-4.7.3v-15.4 12.5c0 6.2-5 4.7-5 0V259c-6.1 6.6-7.8 1.8-5.7-2.1s11.4-11.8 15.5-20.9c4.8-10.4 19-51.1 22.2-71.2 1-6.2 1.7-30.6 1.7-42.1 0-18.6 25-15.6 25 2.6-.2 0-2.4 26.8-2.4 37.1"
        className="st3"
      />
    </g>
    <g id="_x32__x5F_L_x5F_L_x5F_C" className="st0">
      <path
        d="M293.4 367c0-10.9 5-25.7 5-37.3s-4.8-19.9-12.7-43.2c0 0 10.5 21.7 22 21.7 7.3 0 15.5-2.2 15.5-13.6 0 5.9 1.8 18 1.8 26.4 0 8.8-2.5 20.1-2.5 30.3 0 25.4-29.1 26.8-29.1 15.7z"
        className="st1"
      />
    </g>
    <g id="_x32__x5F_R_x5F_L_x5F_C" className="st0">
      <path
        d="M358 329.8c0 11.7 4.9 26.3 4.9 37.2 0 11.2-29 9.8-29-15.7 0-10.2-2.4-21.5-2.4-30.3 0-8.3 1.8-20.5 1.8-26.4 0 11.4 8.2 13.6 15.4 13.6 11.5 0 22-21.7 22-21.7-8 23.3-12.7 31.5-12.7 43.3z"
        className="st1"
      />
    </g>
    <g id="_x32__x5F_N" className="st0">
      <path
        d="M312.4 61c3.6 6.2 8.6 11.8 15.8 11.8S340.4 67.2 344 61v13.3c0 4.6 19.1 12.2 29.8 18.6-13.2-7.9-45.6-13.8-45.6 15.9 0-29.7-32.4-23.8-45.6-15.9 10.7-6.4 29.8-14.1 29.8-18.6V61z"
        className="st1"
      />
    </g>
    <g id="_x32__x5F_T_x5F_C" className="st0">
      <path
        d="M328.2 109c0 47.6 33.6 92.9 36.2 73.2-.2 7.8.9 13.7 2.2 20.8 0 0-9.3 10.4-24.1 15.1-4.3 1.4-9.1 2.2-14.3 2.2-5.1 0-10.1-.8-14.3-2.2-14.9-4.7-24.2-15.2-24.2-15.2 1.3-7.2 2.5-13.1 2.3-20.8 2.6 19.8 36.2-25.6 36.2-73.1"
        className="st1"
      />
    </g>
    <g id="_x32__x5F_R_x5F_L_x5F_B" className="st0">
      <path
        d="M362.9 367c0 10.9-11.1 46.3-11.1 60.6s15.5 32.2 9.4 36.5c-5.1 3.7-21 5-23.4 0-4.9-10 0-40.6 0-49.6s-6.8-28.9-6.8-38.4c0-9.4 2.8-14.6 2.8-24.8.1 25.4 29.1 26.8 29.1 15.7z"
        className="st1"
      />
    </g>
    <g id="_x32__x5F_L_x5F_L_x5F_B" className="st0">
      <path
        d="M293.4 367c0 10.9 11 46.3 11 60.6s-15.5 32.2-9.4 36.5c5.1 3.7 21 5 23.4 0 4.9-10 0-40.6 0-49.6s6.8-28.9 6.8-38.4c0-9.4-2.8-14.7-2.8-24.8.1 25.4-29 26.9-29 15.7z"
        className="st1"
      />
    </g>
    <g id="_x32__x5F_T_x5F_L" className="st0">
      <path
        d="M289.4 162.4c1.6 8.1 2.4 14.4 2.5 19.7 2.6 19.7 36.2-25.6 36.2-73.2 0-29.7-32.5-23.9-45.7-16-10.7 6.4-15.8 18.2-15.8 29.7 0-18.6 25-15.6 25 2.6 0 .1-2.2 26.9-2.2 37.2z"
        className="st2"
      />
      <path
        d="M289.4 162.4c1.6 8.1 2.4 14.4 2.5 19.7 2.6 19.7 36.2-25.6 36.2-73.2 0-29.7-32.5-23.9-45.7-16-10.7 6.4-15.8 18.2-15.8 29.7 0-18.6 25-15.6 25 2.6 0 .1-2.2 26.9-2.2 37.2z"
        className="st3"
      />
    </g>
    <g id="_x32__x5F_L_x5F_L_x5F_T" className="st0">
      <path
        d="M313.8 218.1s2.7 2.7 8.7 11.7c4.9 7.4 5.6 14.5 5.6 20.3 0 13.9-5 37-5 44.5 0 11.4-8.2 13.6-15.5 13.6-11.5 0-22-21.7-22-21.7-7.9-23.3 4-83.6 4-83.6s9.3 10.6 24.2 15.2z"
        className="st2"
      />
      <path
        d="M313.8 218.1s2.7 2.7 8.7 11.7c4.9 7.4 5.6 14.5 5.6 20.3 0 13.9-5 37-5 44.5 0 11.4-8.2 13.6-15.5 13.6-11.5 0-22-21.7-22-21.7-7.9-23.3 4-83.6 4-83.6s9.3 10.6 24.2 15.2z"
        className="st3"
      />
    </g>
    <g id="_x32__x5F_R_x5F_L_x5F_T" className="st0">
      <path
        d="M366.6 202.9s11.9 60.3 4 83.6c0 0-10.5 21.7-22 21.7-7.3 0-15.4-2.2-15.4-13.6 0-7.5-5-30.6-5-44.5 0-5.7.7-12.8 5.6-20.3 6-9 8.7-11.7 8.7-11.7 14.9-4.7 24.1-15.2 24.1-15.2z"
        className="st2"
      />
      <path
        d="M366.6 202.9s11.9 60.3 4 83.6c0 0-10.5 21.7-22 21.7-7.3 0-15.4-2.2-15.4-13.6 0-7.5-5-30.6-5-44.5 0-5.7.7-12.8 5.6-20.3 6-9 8.7-11.7 8.7-11.7 14.9-4.7 24.1-15.2 24.1-15.2z"
        className="st3"
      />
    </g>
    <g id="_x32__x5F_A_x5F_L" className="st0">
      <path
        d="M289.4 162.4c0 19.5-10.4 39.8-26.7 69.4-2.5 4.6-4.1 7-3.9 12.7.3 9-3.5 26.7-3.9 30.3-.7 5.7-4 4.6-4-4.3v-7V277c0 5.9-4 4.3-4 0v-12.5 14.4c0 5.1-4.1 3.4-4.1-.4v-14 15.2c0 5.3-4.7 4.4-4.7.3v-15.4 12.5c0 6.2-5 4.7-5 0V259c-6.1 6.6-7.8 1.8-5.7-2.1s11.4-11.8 15.5-20.9c4.8-10.4 19-51.1 22.2-71.2 1-6.2 1.7-30.6 1.7-42.1 0-18.6 25-15.6 25 2.6-.2 0-2.4 26.8-2.4 37.1"
        className="st2"
      />
      <path
        d="M289.4 162.4c0 19.5-10.4 39.8-26.7 69.4-2.5 4.6-4.1 7-3.9 12.7.3 9-3.5 26.7-3.9 30.3-.7 5.7-4 4.6-4-4.3v-7V277c0 5.9-4 4.3-4 0v-12.5 14.4c0 5.1-4.1 3.4-4.1-.4v-14 15.2c0 5.3-4.7 4.4-4.7.3v-15.4 12.5c0 6.2-5 4.7-5 0V259c-6.1 6.6-7.8 1.8-5.7-2.1s11.4-11.8 15.5-20.9c4.8-10.4 19-51.1 22.2-71.2 1-6.2 1.7-30.6 1.7-42.1 0-18.6 25-15.6 25 2.6-.2 0-2.4 26.8-2.4 37.1"
        className="st3"
      />
    </g>
    <g id="_x32__x5F_T_x5F_R" className="st0">
      <path
        d="M364.7 125.3c0-18.2 25-21.3 25-2.6 0-11.5-5.1-23.3-15.8-29.7-13.2-7.9-45.7-13.7-45.7 16 0 47.6 33.6 92.9 36.2 73.2.1-5.3.9-11.6 2.5-19.7 0-10.4-2.2-37.2-2.2-37.2z"
        className="st2"
      />
      <path
        d="M364.7 125.3c0-18.2 25-21.3 25-2.6 0-11.5-5.1-23.3-15.8-29.7-13.2-7.9-45.7-13.7-45.7 16 0 47.6 33.6 92.9 36.2 73.2.1-5.3.9-11.6 2.5-19.7 0-10.4-2.2-37.2-2.2-37.2z"
        className="st3"
      />
    </g>
    <g id="_x32__x5F_A_x5F_R" className="st0">
      <path
        d="M366.9 162.4c0-10.3-2.2-37-2.2-37 0-18.2 25-21.3 25-2.6 0 11.5.7 36 1.7 42.1 3.1 20.1 17.4 60.8 22.2 71.2 4.1 9.1 13.4 17 15.5 20.9 2.1 3.9.3 8.7-5.7 2.1v18.1c0 4.7-5 6.2-5 0v-12.5 15.4c0 4.1-4.7 5-4.7-.3v-15.2 14c0 3.8-4.1 5.5-4.1.4v-14.4 12.5c0 4.3-4 5.9-4 0v-13.5 7c0 8.9-3.4 10.1-4 4.3-.4-3.7-4.2-21.4-3.9-30.3.2-5.6-1.4-8.1-3.9-12.7-16.5-29.7-26.9-50-26.9-69.5"
        className="st2"
      />
      <path
        d="M366.9 162.4c0-10.3-2.2-37-2.2-37 0-18.2 25-21.3 25-2.6 0 11.5.7 36 1.7 42.1 3.1 20.1 17.4 60.8 22.2 71.2 4.1 9.1 13.4 17 15.5 20.9 2.1 3.9.3 8.7-5.7 2.1v18.1c0 4.7-5 6.2-5 0v-12.5 15.4c0 4.1-4.7 5-4.7-.3v-15.2 14c0 3.8-4.1 5.5-4.1.4v-14.4 12.5c0 4.3-4 5.9-4 0v-13.5 7c0 8.9-3.4 10.1-4 4.3-.4-3.7-4.2-21.4-3.9-30.3.2-5.6-1.4-8.1-3.9-12.7-16.5-29.7-26.9-50-26.9-69.5"
        className="st3"
      />
    </g>
    <g id="_x32__x5F_H" className="st0">
      <path
        d="M312.3 60.9c-3.7-6.4-6.1-13.4-8-14.9-2.5-1.8-2.9-8-2-9 1-1 4.3 0 4.3 0s-2.2-26.9 21.6-26.9S349.8 37 349.8 37s3.4-1 4.3 0c1 .9.5 7-2 9-1.9 1.5-4.3 8.6-8.1 15-3.7 6.2-8.6 11.9-15.9 11.9s-12.2-5.8-15.8-12z"
        className="st2"
      />
      <path
        d="M312.3 60.9c-3.7-6.4-6.1-13.4-8-14.9-2.5-1.8-2.9-8-2-9 1-1 4.3 0 4.3 0s-2.2-26.9 21.6-26.9S349.8 37 349.8 37s3.4-1 4.3 0c1 .9.5 7-2 9-1.9 1.5-4.3 8.6-8.1 15-3.7 6.2-8.6 11.9-15.9 11.9s-12.2-5.8-15.8-12z"
        className="st3"
      />
    </g>
    <g id="_x33__x5F_T_x5F_T" className="st0">
      <path
        d="M522.6 142.6c-2.2-31.4-42.6-22.1-69.9-4.2.1 7.4 1.4 15.6 3.2 23.4 1.5 2.9 12.8 29.1 33.9 15.1 8.8-5.9 20.8-10.2 32.8-34.3z"
        className="st2"
      />
      <path
        d="M522.6 142.6c-2.2-31.4-42.6-22.1-69.9-4.2.1 7.4 1.4 15.6 3.2 23.4 1.5 2.9 12.8 29.1 33.9 15.1 8.8-5.9 20.8-10.2 32.8-34.3z"
        className="st3"
      />
    </g>
    <g id="_x33__x5F_T_x5F_L" className="st0">
      <path
        d="M460.1 215.1c7.7-7.7 6-19.3 5.1-21.8-1.5-4.6-6.1-17.5-9.3-31.5 1.5 2.9 12.8 29.1 33.9 15.1.6 19.2 3.9 38.9-6.5 59.7-7.2-4.3-18.4-15.2-23.2-21.5z"
        className="st2"
      />
      <path
        d="M460.1 215.1c7.7-7.7 6-19.3 5.1-21.8-1.5-4.6-6.1-17.5-9.3-31.5 1.5 2.9 12.8 29.1 33.9 15.1.6 19.2 3.9 38.9-6.5 59.7-7.2-4.3-18.4-15.2-23.2-21.5z"
        className="st3"
      />
    </g>
    <g id="_x33__x5F_T_x5F_R" className="st0">
      <path
        d="M489.8 176.8c8.7-5.8 20.7-10.1 32.8-34.3.3 9.2 1.5 23.6 1 33.9-.4 7.8-.4 23.8-.4 30.9 0 7.4-6.2 29.6-8.8 33.7-2.5 4.1-4.8.2-4.8.2s0 .9-.2 5.4c0 0-18.7-5.8-26.1-10.2 10.4-20.6 7.1-40.3 6.5-59.6z"
        className="st4"
      />
    </g>
    <g id="_x33__x5F_L_x5F_T" className="st0">
      <path
        d="M493.9 329.2c4.9-16 9.7-32.3 11.5-41.7 2.4-12.4 3.6-31.2 4-40.8 0 0-18.7-5.8-26.1-10.2-7.3-4.2-18.4-15.1-23.2-21.5-7.7 7.7-18.4 30.9-8 44.9 3.3 4.4 7.3 5.9 6.5 11.3-1.2 7.9-3.8 18.8-3 28.2 6.5 12.6 7.4 37.9 38.3 29.8z"
        className="st2"
      />
      <path
        d="M493.9 329.2c4.9-16 9.7-32.3 11.5-41.7 2.4-12.4 3.6-31.2 4-40.8 0 0-18.7-5.8-26.1-10.2-7.3-4.2-18.4-15.1-23.2-21.5-7.7 7.7-18.4 30.9-8 44.9 3.3 4.4 7.3 5.9 6.5 11.3-1.2 7.9-3.8 18.8-3 28.2 6.5 12.6 7.4 37.9 38.3 29.8z"
        className="st3"
      />
    </g>
    <g id="_x33__x5F_L_x5F_B" className="st0">
      <path
        d="M493.9 329.2c-4.7 15.2-9.5 30-12.3 38.4-5.7 17.2-10 54.7-10 64.6s2.4 15.8 8.1 18.3 20.9 12.2 27.6 12.2c6.7 0 8.2 1.7 8.2 2.7s-.8 3.6-5.4 3.6h-55.4c-13.5 0-11.3-6.1-9-13.5 2.3-7.5 4.6-17.3 5.6-30.5 1.1-13.1-10.9-30.9-4.4-49.6 3.9-11.5 8-18.1 11.4-29.4s-2.1-37.2-2.8-46.6c6.6 12.6 7.5 37.9 38.4 29.8z"
        className="st1"
      />
    </g>
    <g id="_x34__x5F_T_x5F_T" className="st0">
      <path
        d="M604.2 176.8c21.1 14 32.4-12.2 33.9-15.1 1.8-7.8 3.1-16.1 3.2-23.4-27.4-17.9-67.7-27.2-69.9 4.2 12.1 24.2 24.1 28.5 32.8 34.3z"
        className="st2"
      />
      <path
        d="M604.2 176.8c21.1 14 32.4-12.2 33.9-15.1 1.8-7.8 3.1-16.1 3.2-23.4-27.4-17.9-67.7-27.2-69.9 4.2 12.1 24.2 24.1 28.5 32.8 34.3z"
        className="st3"
      />
    </g>
    <g id="_x34__x5F_T_x5F_R" className="st0">
      <path
        d="M610.7 236.5c-10.4-20.8-7.1-40.5-6.5-59.7 21.1 14 32.4-12.2 33.9-15.1-3.2 14.1-7.8 26.9-9.3 31.5-.9 2.5-2.6 14.1 5.1 21.8-4.7 6.4-15.9 17.3-23.2 21.5z"
        className="st2"
      />
      <path
        d="M610.7 236.5c-10.4-20.8-7.1-40.5-6.5-59.7 21.1 14 32.4-12.2 33.9-15.1-3.2 14.1-7.8 26.9-9.3 31.5-.9 2.5-2.6 14.1 5.1 21.8-4.7 6.4-15.9 17.3-23.2 21.5z"
        className="st3"
      />
    </g>
    <g id="_x34__x5F_T_x5F_L" className="st0">
      <path
        d="M610.7 236.5c-7.4 4.3-26.1 10.2-26.1 10.2-.2-4.5-.2-5.4-.2-5.4s-2.3 3.9-4.8-.2c-2.6-4.1-8.8-26.3-8.8-33.7 0-7 0-23.1-.4-30.9-.5-10.3.7-24.7 1-33.9 12.1 24.2 24.1 28.5 32.8 34.3-.5 19.2-3.9 38.9 6.5 59.6z"
        className="st4"
      />
    </g>
    <g id="_x34__x5F_L_x5F_T" className="st0">
      <path
        d="M638.5 299.4c.8-9.4-1.8-20.3-3-28.2-.8-5.4 3.3-6.8 6.5-11.3 10.4-14-.3-37.2-8-44.9-4.8 6.3-16 17.3-23.2 21.5-7.4 4.3-26.1 10.2-26.1 10.2.4 9.5 1.6 28.4 4 40.8 1.8 9.4 6.6 25.7 11.5 41.7 30.8 8.1 31.7-17.2 38.3-29.8z"
        className="st2"
      />
      <path
        d="M638.5 299.4c.8-9.4-1.8-20.3-3-28.2-.8-5.4 3.3-6.8 6.5-11.3 10.4-14-.3-37.2-8-44.9-4.8 6.3-16 17.3-23.2 21.5-7.4 4.3-26.1 10.2-26.1 10.2.4 9.5 1.6 28.4 4 40.8 1.8 9.4 6.6 25.7 11.5 41.7 30.8 8.1 31.7-17.2 38.3-29.8z"
        className="st3"
      />
    </g>
    <g id="_x34__x5F_L_x5F_B" className="st0">
      <path
        d="M600.2 329.2c4.7 15.2 9.5 30 12.3 38.4 5.7 17.2 10 54.7 10 64.6s-2.4 15.8-8.1 18.3c-5.7 2.5-20.9 12.2-27.6 12.2-6.7 0-8.2 1.7-8.2 2.7s.8 3.6 5.4 3.6h55.4c13.5 0 11.3-6.1 9-13.5-2.3-7.5-4.6-17.3-5.6-30.5-1.1-13.1 10.9-30.9 4.4-49.6-3.9-11.5-8-18.1-11.4-29.4s2.1-37.2 2.8-46.6c-6.7 12.6-7.6 37.9-38.4 29.8z"
        className="st1"
      />
    </g>
    <path
      d="M95.8 61.1c-3.8-6.5-6.2-13.5-8.1-15.2-2.5-2-2.9-8.1-2-9 1-1 4.3 0 4.3 0S87.9 10 111.6 10s21.6 26.9 21.6 26.9 3.4-1 4.3 0 .5 7.2-2 9c-2 1.5-4.3 8.6-8.1 15.1M106 229.8c5.3 8.1 5.6 14.5 5.6 20.3 0 13.9-5.1 37.1-5.1 44.5 0 5.9 1.8 18 1.8 26.3 0 8.8-2.4 20.1-2.4 30.3s2.8 15.4 2.8 24.8-6.8 29.4-6.8 38.4 4.8 39.7-.1 49.7c-2.4 5-18.3 3.6-23.4-.1-6.1-4.3 9.4-22.2 9.4-36.5S76.9 377.9 76.9 367s4.9-25.5 4.9-37.2-4.8-19.9-12.7-43.2h0c-7.9-23.3 4-83.6 4-83.6 1.3-7.2 2.4-13 2.2-20.8-.1-5.3-.9-11.6-2.5-19.7 0 19.5-10.4 39.8-26.7 69.4-2.5 4.6-4.1 7-3.9 12.7.3 9-3.5 26.7-3.9 30.3-.7 5.7-4 4.6-4-4.3v-7V277c0 5.9-4 4.3-4 0v-12.5 14.4c0 5.1-4.1 3.4-4.1-.4v-14 15.2c0 5.3-4.7 4.4-4.7.3v-15.4 12.5c0 6.2-5 4.7-5 0V259c-6.1 6.6-7.8 1.8-5.7-2.1s11.4-11.8 15.5-20.9c4.8-10.4 19-51.2 22.1-71.2 1-6.2 1.6-30.7 1.6-42.2s5.1-23.3 15.8-29.7c10.7-6.4 29.8-14.1 29.8-18.6V61M99.1 36.9h8.7M116.3 36.9h8.7M109.8 51.6h4.4M106.5 59h11"
      className="st5"
    />
    <circle cx={103.4} cy={41} r={2} />
    <circle cx={120.6} cy={41} r={2} />
    <path
      d="M505.4 16.1c-.8 14.6-9.3 70.5-12.5 86.9-1.8 10.2 1.8 22.2 1.8 22.2"
      className="st5"
    />
    <path
      d="M504 29.9c10.1 2.6 19.4 9.8 19.4 19.3 0 3.1-.8 3.5-1.5 4.8-.8 1.3 0 4.2 1.1 6.1 1.1 1.7 3.9 3.5 3.1 6.3-.8 2.8-3.1 2.1-3.9 5.4-.8 3.4-3.8 3.4-3.5 5.6.3 2.3 2.3 4.3 2.7 6.6.4 2.3.3 4.9-5.6 4.9-6 0-8 .3-10.5 3.4s-7.4 6.5-3.3 13.7 20.1 22.4 20.6 36.6c.3 9.2 1.5 23.6 1 33.9-.4 7.8-.4 23.8-.4 30.9 0 7.4-6.2 29.6-8.8 33.7-2.5 4.1-4.8.2-4.8.2s-.1 2.9-.3 7.4c-.4 9.5-1.5 26.4-4 38.8-1.8 9.4-6.6 25.7-11.5 41.7-4.7 15.2-9.5 30-12.3 38.4-5.7 17.2-10 54.7-10 64.6s2.4 15.8 8.1 18.3 20.9 12.2 27.6 12.2 8.2 1.7 8.2 2.7-.8 3.6-5.4 3.6h-55.4c-13.5 0-11.3-6.1-9-13.5 2.3-7.5 4.6-17.3 5.6-30.5 1.1-13.1-10.9-30.9-4.4-49.6 3.9-11.5 8-18.1 11.4-29.4s-2.1-37.2-2.8-46.6c-.8-9.4 1.8-20.3 3-28.2.8-5.4-3.3-6.8-6.5-11.3-10.4-14 .3-37.2 8-44.9s6-19.3 5.1-21.8c-1.5-4.6-6.1-17.5-9.3-31.5-1.8-7.8-3.1-16.1-3.2-23.4-.2-23.7 13.3-52.2 20.5-65.4 7.2-13.1 5.6-36.5 5.6-56.8"
      className="st5"
    />
    <path
      d="M479.2 30.8c-14.1 5.3-13.8 29.8-4 38.2M588.8 16.1c.8 14.6 9.3 70.5 12.5 86.9 1.8 10.2-1.8 22.2-1.8 22.2"
      className="st5"
    />
    <path
      d="M590.1 29.9c-10.1 2.6-19.4 9.8-19.4 19.3 0 3.1.8 3.5 1.5 4.8.8 1.3 0 4.2-1.1 6.1-1.1 1.7-3.9 3.5-3.1 6.3.8 2.8 3.1 2.1 3.9 5.4s3.8 3.4 3.5 5.6c-.3 2.3-2.3 4.3-2.7 6.6-.4 2.3-.3 4.9 5.6 4.9s8 .3 10.5 3.4 7.4 6.5 3.3 13.7c-4 7.2-20.1 22.4-20.6 36.6-.3 9.2-1.5 23.6-1 33.9.4 7.8.4 23.8.4 30.9 0 7.4 6.2 29.6 8.8 33.7 2.5 4.1 4.8.2 4.8.2s.7 28 4.2 46.2 18.1 62.9 23.8 80.1 10 54.7 10 64.6-2.4 15.8-8.1 18.3c-5.7 2.5-20.9 12.2-27.6 12.2-6.7 0-8.2 1.7-8.2 2.7s.8 3.6 5.4 3.6h55.4c13.5 0 11.3-6.1 9-13.5s-4.6-17.3-5.6-30.5c-1.1-13.1 10.9-30.9 4.4-49.6-3.9-11.5-8-18.1-11.4-29.4s2.1-37.2 2.8-46.6-1.8-20.3-3-28.2c-.8-5.4 3.3-6.8 6.5-11.3 10.4-14-.3-37.2-8-44.9s-6-19.3-5.1-21.8c2.3-7.2 12.2-34.4 12.5-55 .2-23.7-13.3-52.2-20.5-65.4-7.2-13.1-5.9-36.6-5.9-56.9"
      className="st5"
    />
    <path
      d="M614.9 30.8c14.1 5.3 13.8 29.8 4 38.2M16.6 258.9c6.1-6.6 8.9-8.1 8.9-8.1M206.7 258.9c-6.1-6.6-8.9-8.1-8.9-8.1M127.5 61.1c-3.6 6.2-8.6 11.8-15.8 11.8-7.3 0-12.1-5.6-15.8-11.8M75.1 125.2s-2.2 27-2.2 37.2M414.3 250.7s2.8 1.5 8.9 8.1M366.9 162.4c0-10.2-2.2-37.2-2.2-37.2"
      className="st5"
    />
    <path
      d="M297.4 247.2c7.7 6.1 25 7 30.8 0 7.7 6.1 25 7 30.8 0"
      
    />
    <path
      d="M117.3 229.8c-5.3 8.1-5.6 14.5-5.6 20.3 0 13.9 5 37 5 44.5 0 5.9-1.8 18-1.8 26.4 0 8.8 2.5 20.1 2.5 30.3s-2.8 15.4-2.8 24.8 6.8 29.4 6.8 38.4-4.8 39.7.1 49.7c2.4 5 18.3 3.6 23.4-.1 6.1-4.3-9.4-22.2-9.4-36.5s11-49.6 11-60.6c0-10.9-5-25.5-5-37.3s4.8-19.9 12.7-43.2c7.9-23.3-4-83.6-4-83.6-2.3-12.1-3.9-20.6.2-40.5 0 19.5 10.4 39.8 26.7 69.4 2.5 4.6 4.1 7 3.9 12.7-.3 9 3.5 26.7 3.9 30.3.7 5.7 4 4.6 4-4.3v-7V277c0 5.9 4 4.3 4 0v-12.5 14.4c0 5.1 4.1 3.4 4.1-.4v-14 15.2c0 5.3 4.7 4.4 4.7.3v-15.4 12.5c0 6.2 5 4.7 5 0V259c6.1 6.6 7.8 1.8 5.7-2.1S201 245.1 196.9 236c-4.8-10.4-19-51.1-22.2-71.2-1-6.2-1.7-30.6-1.7-42.1s-5-23.3-15.7-29.7-29.8-14.1-29.8-18.7V61M333.8 229.8c-5.3 8.1-5.6 14.5-5.6 20.3 0 13.9 5.1 37.1 5.1 44.5 0 5.9-1.8 18-1.8 26.3 0 8.8 2.4 20.1 2.4 30.3s-2.8 15.4-2.8 24.8 6.8 29.4 6.8 38.4-4.9 39.7 0 49.6c2.4 5 18.3 3.7 23.4 0 6.1-4.3-9.4-22.2-9.4-36.5s11.1-49.6 11.1-60.6c0-10.9-4.9-25.5-4.9-37.2s4.8-19.9 12.7-43.2h0c7.9-23.3-4-83.6-4-83.6-1.3-7.2-2.4-13-2.2-20.8.1-5.3.9-11.6 2.5-19.7 0 19.5 10.4 39.8 26.7 69.4 2.5 4.6 4.1 7 3.9 12.7-.3 9 3.5 26.7 3.9 30.3.7 5.7 4 4.6 4-4.3v-7V277c0 5.9 4 4.3 4 0v-12.5 14.4c0 5.1 4.1 3.4 4.1-.4v-14 15.2c0 5.3 4.7 4.4 4.7.3v-15.4 12.5c0 6.2 5 4.7 5 0V259c6.1 6.6 7.8 1.8 5.7-2.1-2.1-3.9-11.4-11.8-15.5-20.9-4.8-10.4-19-51.2-22.1-71.2-1-6.2-1.6-30.7-1.6-42.2s-5.1-23.3-15.8-29.7-29.8-14.1-29.8-18.6V61c3.8-6.4 6.1-13.4 8.1-15 2.5-2 2.9-8.1 2-9-1-1-4.3 0-4.3 0s2.2-26.9-21.6-26.9S306.6 37 306.6 37s-3.4-1-4.3 0c-1 1-.5 7.2 2 9 2 1.5 4.3 8.4 8 14.8v13.5c0 4.6-19 12.3-29.8 18.7s-15.8 18.2-15.8 29.7-.7 36-1.7 42.1c-3.1 20.1-17.4 60.8-22.2 71.2-4.1 9.1-13.4 17-15.5 20.9-2.1 3.9-.3 8.7 5.7 2.1v18.1c0 4.7 5 6.2 5 0v-12.5V280c0 4.1 4.7 5 4.7-.3v-15.2 14c0 3.8 4.1 5.5 4.1.4v-14.4V277c0 4.3 4 5.9 4 0v-13.5 7c0 8.9 3.4 10.1 4 4.3.4-3.7 4.2-21.4 3.9-30.3-.2-5.6 1.4-8.1 3.9-12.7 16.4-29.6 26.7-49.9 26.7-69.4 4.1 19.9 2.5 28.4.2 40.5 0 0-11.9 60.3-4 83.6 7.9 23.3 12.7 31.5 12.7 43.2s-5 26.3-5 37.3c0 10.9 11 46.3 11 60.6s-15.5 32.2-9.4 36.5c5.1 3.7 21 5 23.4 0 4.9-10 0-40.6 0-49.6s6.8-28.9 6.8-38.4c0-9.4-2.8-14.7-2.8-24.8 0-10.2 2.5-21.6 2.5-30.3 0-8.3-1.8-20.5-1.8-26.4 0-7.5 5-30.6 5-44.5 0-5.7-.3-12.1-5.6-20.3"
      className="st5"
    />
  </svg>