<?xml version="1.0" encoding="utf-8"?>
<!-- Generator: Adobe Illustrator 27.8.0, SVG Export Plug-In . SVG Version: 6.00 Build 0)  -->
<svg version="1.1" id="Livello_2_00000135648540573259014860000015161396913372170371_"
	 xmlns="http://www.w3.org/2000/svg" xmlns:xlink="http://www.w3.org/1999/xlink" x="0px" y="0px" viewBox="0 0 1697.8 200.1"
	 style="enable-background:new 0 0 1697.8 200.1;" xml:space="preserve">
<style type="text/css">
	.st0{fill:url(#SVGID_1_);}
	.st1{fill:#EB7171;}
	.st2{fill:#F0983F;}
	.st3{fill:#F5D850;}
	.st4{display:none;fill:url(#SVGID_00000124138890680679171540000009943959835974896780_);}
	.st5{display:none;fill:url(#SVGID_00000181062290670300761150000014889656300258784687_);}
	.st6{display:none;fill:url(#SVGID_00000015326311970275688480000014746138013562216611_);}
	.st7{opacity:0.5;}
	.st8{opacity:0.19;fill:none;stroke:#713F98;stroke-width:2;stroke-miterlimit:10;}
	.st9{opacity:0.28;fill:none;stroke:#713F98;stroke-width:2;stroke-miterlimit:10;}
	.st10{opacity:0.37;fill:none;stroke:#713F98;stroke-width:2;stroke-miterlimit:10;}
	.st11{opacity:0.46;fill:none;stroke:#713F98;stroke-width:2;stroke-miterlimit:10;}
	.st12{opacity:0.55;fill:none;stroke:#713F98;stroke-width:2;stroke-miterlimit:10;}
	.st13{opacity:0.64;fill:none;stroke:#713F98;stroke-width:2;stroke-miterlimit:10;}
	.st14{opacity:0.73;fill:none;stroke:#713F98;stroke-width:2;stroke-miterlimit:10;}
	.st15{opacity:0.82;fill:none;stroke:#713F98;stroke-width:2;stroke-miterlimit:10;}
	.st16{opacity:0.91;fill:none;stroke:#713F98;stroke-width:2;stroke-miterlimit:10;}
	.st17{fill:#FFFFFF;}
</style>
<g>
	
		<linearGradient id="SVGID_1_" gradientUnits="userSpaceOnUse" x1="1697.7" y1="-2320.8999" x2="0" y2="-2320.8999" gradientTransform="matrix(1 0 0 -1 0 -2220.8999)">
		<stop  offset="0" style="stop-color:#713F98"/>
		<stop  offset="1" style="stop-color:#713F98;stop-opacity:0"/>
	</linearGradient>
	<path class="st0" d="M1642.3,3.3c-1.3-1.8-4.1-3.3-6.3-3.3H4C1.8,0,0,1.8,0,4v191.9c0,2.2,1.8,4,4,4l1632,0.1c2.2,0,5-1.5,6.3-3.3
		l54.4-93.5c1.3-1.8,1.3-4.8,0-6.6L1642.3,3.3z"/>
</g>
<rect x="682.9" y="-509.5" class="st1" width="83.6" height="83.6"/>
<rect x="809.6" y="-509.5" class="st2" width="102.7" height="102.7"/>
<rect x="559.9" y="-523.2" class="st3" width="122.4" height="122.4"/>
<linearGradient id="SVGID_00000027567000436883135320000012644187632518314390_" gradientUnits="userSpaceOnUse" x1="723.4" y1="5265.9199" x2="1709.5" y2="5265.9199" gradientTransform="matrix(1 0 0 1 0 -5079.5703)">
	<stop  offset="0" style="stop-color:#FFFFFF"/>
	<stop  offset="1" style="stop-color:#FFFFFF;stop-opacity:0"/>
</linearGradient>
<polygon style="display:none;fill:url(#SVGID_00000027567000436883135320000012644187632518314390_);" points="1662,226.9 
	1709.5,186.4 1662,145.8 723.4,145.8 723.4,226.9 "/>
<linearGradient id="SVGID_00000098918918129296377760000006191177402530602897_" gradientUnits="userSpaceOnUse" x1="324.4" y1="5265.9199" x2="860.8" y2="5265.9199" gradientTransform="matrix(1 0 0 1 0 -5079.5703)">
	<stop  offset="0" style="stop-color:#FFFFFF"/>
	<stop  offset="1" style="stop-color:#FFFFFF;stop-opacity:0"/>
</linearGradient>
<polygon style="display:none;fill:url(#SVGID_00000098918918129296377760000006191177402530602897_);" points="813.3,226.9 
	860.8,186.4 813.3,145.8 324.4,145.8 324.4,226.9 "/>
<linearGradient id="SVGID_00000034784720731248950650000009846014875692346244_" gradientUnits="userSpaceOnUse" x1="-9.5" y1="5265.9199" x2="526.9" y2="5265.9199" gradientTransform="matrix(1 0 0 1 0 -5079.5703)">
	<stop  offset="0" style="stop-color:#FFFFFF"/>
	<stop  offset="1" style="stop-color:#FFFFFF;stop-opacity:0"/>
</linearGradient>
<polygon style="display:none;fill:url(#SVGID_00000034784720731248950650000009846014875692346244_);" points="479.4,226.9 
	526.9,186.4 479.4,145.8 -9.5,145.8 -9.5,226.9 "/>
<g class="st7">
	<line class="st8" x1="169.7" y1="0" x2="169.7" y2="200"/>
	<line class="st9" x1="339.3" y1="0" x2="339.3" y2="200"/>
	<line class="st10" x1="509" y1="0" x2="509" y2="200"/>
	<line class="st11" x1="678.7" y1="0" x2="678.7" y2="200"/>
	<line class="st12" x1="848.4" y1="0" x2="848.4" y2="200"/>
	<line class="st13" x1="1018" y1="0" x2="1018" y2="200"/>
	<line class="st14" x1="1187.7" y1="0" x2="1187.7" y2="200"/>
	<line class="st15" x1="1357.4" y1="0" x2="1357.4" y2="200"/>
	<line class="st16" x1="1527.1" y1="0" x2="1527.1" y2="200"/>
</g>
<g>
	<g>
		<path d="M39.9,108.6h-7.3l-7-18.8c0.2,1.8,0.4,3.5,0.5,4.9c0.1,1.4,0.2,3.1,0.2,5v8.9h-5.1V84.4h7.1l7.2,18.8
			c-0.5-3.2-0.8-6.2-0.8-9v-9.8h5.1V108.6z"/>
		<path d="M60.4,101H48.9c0.2,1.6,0.6,2.7,1.3,3.3s1.7,0.9,2.9,0.9c0.7,0,1.5-0.1,2.2-0.4c0.7-0.3,1.5-0.7,2.3-1.2l2.3,3.1
			c-2.2,1.7-4.6,2.6-7.2,2.6c-3,0-5.3-0.9-6.9-2.7c-1.6-1.8-2.4-4.2-2.4-7.1c0-1.9,0.3-3.6,1-5.1c0.7-1.5,1.7-2.7,3-3.6
			c1.3-0.9,2.9-1.3,4.7-1.3c2.7,0,4.8,0.8,6.3,2.5c1.5,1.7,2.3,4,2.3,7C60.5,99.7,60.5,100.4,60.4,101z M55.1,97.4
			c0-2.8-1.1-4.3-3-4.3c-1,0-1.7,0.4-2.2,1c-0.5,0.7-0.8,1.9-1,3.5h6.2V97.4z"/>
		<path d="M73.9,90c1.2,0.4,2.2,1,3.1,1.7l-2,3.1c-1.5-1-3-1.4-4.6-1.4c-0.7,0-1.3,0.1-1.7,0.4c-0.4,0.2-0.6,0.6-0.6,1
			c0,0.4,0.1,0.6,0.3,0.9c0.2,0.2,0.5,0.4,1.1,0.7c0.5,0.2,1.4,0.5,2.5,0.8c1.9,0.6,3.4,1.3,4.3,2.2c0.9,0.9,1.4,2.1,1.4,3.7
			c0,1.3-0.4,2.4-1.1,3.3s-1.7,1.6-3,2.1c-1.3,0.5-2.7,0.7-4.2,0.7c-1.6,0-3-0.2-4.4-0.7c-1.3-0.5-2.5-1.2-3.4-2l2.7-3
			c1.6,1.2,3.2,1.8,4.9,1.8c0.8,0,1.5-0.2,2-0.5c0.5-0.3,0.7-0.7,0.7-1.3c0-0.4-0.1-0.8-0.3-1.1c-0.2-0.3-0.5-0.5-1.1-0.7
			c-0.5-0.2-1.4-0.5-2.6-0.8c-1.8-0.5-3.2-1.3-4.1-2.2c-0.9-1-1.4-2.1-1.4-3.6c0-1.1,0.3-2,0.9-2.9c0.6-0.9,1.5-1.5,2.7-2
			c1.2-0.5,2.5-0.8,4-0.8C71.5,89.4,72.8,89.6,73.9,90z"/>
		<path d="M90.6,90c1.2,0.4,2.2,1,3.1,1.7l-2,3.1c-1.5-1-3-1.4-4.6-1.4c-0.7,0-1.3,0.1-1.7,0.4c-0.4,0.2-0.6,0.6-0.6,1
			c0,0.4,0.1,0.6,0.3,0.9c0.2,0.2,0.5,0.4,1.1,0.7c0.5,0.2,1.4,0.5,2.5,0.8c1.9,0.6,3.4,1.3,4.3,2.2c0.9,0.9,1.4,2.1,1.4,3.7
			c0,1.3-0.4,2.4-1.1,3.3s-1.7,1.6-3,2.1c-1.3,0.5-2.7,0.7-4.2,0.7c-1.6,0-3-0.2-4.4-0.7c-1.3-0.5-2.5-1.2-3.4-2l2.7-3
			c1.6,1.2,3.2,1.8,4.9,1.8c0.8,0,1.5-0.2,2-0.5c0.5-0.3,0.7-0.7,0.7-1.3c0-0.4-0.1-0.8-0.3-1.1c-0.2-0.3-0.5-0.5-1.1-0.7
			c-0.5-0.2-1.4-0.5-2.6-0.8c-1.8-0.5-3.2-1.3-4.1-2.2c-0.9-1-1.4-2.1-1.4-3.6c0-1.1,0.3-2,0.9-2.9c0.6-0.9,1.5-1.5,2.7-2
			c1.2-0.5,2.5-0.8,4-0.8C88.2,89.4,89.4,89.6,90.6,90z"/>
		<path d="M112.9,108.6h-4.8l-0.2-2.3c-1.4,2-3.2,2.9-5.6,2.9c-1.7,0-3-0.5-3.9-1.5c-0.9-1-1.3-2.5-1.3-4.3V90h5.5v12.6
			c0,0.9,0.1,1.5,0.4,1.9c0.3,0.4,0.7,0.5,1.3,0.5c1.2,0,2.2-0.7,3-2.2V90h5.5V108.6z"/>
		<path d="M131.9,90.9c0.9,1,1.4,2.4,1.4,4.1v13.6h-5.5V96c0-0.9-0.1-1.6-0.4-1.9c-0.3-0.4-0.7-0.5-1.3-0.5c-1.1,0-2.2,0.8-3.2,2.4
			v12.7h-5.5V90h4.8l0.4,2.2c0.8-0.9,1.7-1.6,2.6-2.1c0.9-0.5,2-0.7,3.1-0.7C129.7,89.4,131,89.9,131.9,90.9z"/>
		<path d="M162.4,82.6v26h-4.9l-0.3-2.2c-1.3,1.8-3.1,2.8-5.3,2.8c-2.3,0-4.1-0.9-5.3-2.7c-1.2-1.8-1.8-4.2-1.8-7.3
			c0-1.9,0.3-3.6,0.9-5.1c0.6-1.5,1.5-2.7,2.7-3.5s2.5-1.3,4-1.3c1.8,0,3.2,0.6,4.4,1.8v-9.1L162.4,82.6z M156.8,103.1v-8
			c-0.4-0.5-0.9-0.9-1.3-1.2c-0.5-0.3-1-0.4-1.6-0.4c-1,0-1.8,0.5-2.5,1.4c-0.6,1-0.9,2.4-0.9,4.4c0,2.2,0.3,3.7,0.8,4.5
			c0.5,0.9,1.3,1.3,2.3,1.3C154.9,105.2,156,104.5,156.8,103.1z"/>
		<path d="M181.4,92c1.6,1.7,2.4,4.2,2.4,7.3c0,2-0.4,3.7-1.1,5.2c-0.7,1.5-1.8,2.6-3.1,3.4c-1.4,0.8-3,1.2-4.8,1.2
			c-2.8,0-5-0.9-6.7-2.6c-1.6-1.7-2.4-4.2-2.4-7.3c0-2,0.4-3.7,1.1-5.2c0.7-1.5,1.8-2.6,3.1-3.4c1.4-0.8,3-1.2,4.8-1.2
			C177.6,89.4,179.8,90.3,181.4,92z M172.2,94.9c-0.6,0.9-0.8,2.4-0.8,4.4c0,2,0.3,3.5,0.8,4.4c0.5,0.9,1.4,1.4,2.5,1.4
			c1.1,0,2-0.5,2.5-1.4c0.6-0.9,0.8-2.4,0.8-4.4c0-2-0.3-3.5-0.8-4.4c-0.5-0.9-1.4-1.4-2.5-1.4C173.6,93.5,172.8,94,172.2,94.9z"/>
		<path d="M188.3,107.8c-0.9-0.9-1.3-2.2-1.3-3.9V82.6l5.5-0.6v21.6c0,0.8,0.3,1.2,0.9,1.2c0.3,0,0.6-0.1,0.9-0.2l1.1,3.9
			c-1,0.4-2.1,0.6-3.4,0.6C190.5,109.2,189.2,108.8,188.3,107.8z"/>
		<path d="M212.1,92c1.6,1.7,2.4,4.2,2.4,7.3c0,2-0.4,3.7-1.1,5.2c-0.7,1.5-1.8,2.6-3.1,3.4c-1.4,0.8-3,1.2-4.8,1.2
			c-2.8,0-5-0.9-6.7-2.6c-1.6-1.7-2.4-4.2-2.4-7.3c0-2,0.4-3.7,1.1-5.2c0.7-1.5,1.8-2.6,3.1-3.4c1.4-0.8,3-1.2,4.8-1.2
			C208.3,89.4,210.5,90.3,212.1,92z M202.9,94.9c-0.6,0.9-0.8,2.4-0.8,4.4c0,2,0.3,3.5,0.8,4.4c0.5,0.9,1.4,1.4,2.5,1.4
			c1.1,0,2-0.5,2.5-1.4c0.6-0.9,0.8-2.4,0.8-4.4c0-2-0.3-3.5-0.8-4.4c-0.5-0.9-1.4-1.4-2.5-1.4C204.3,93.5,203.5,94,202.9,94.9z"/>
		<path d="M229.7,89.8l-0.9,5.4c-0.7-0.2-1.3-0.2-1.7-0.2c-1.1,0-1.9,0.4-2.5,1.1c-0.6,0.8-1,1.9-1.3,3.4v9.2h-5.5V90h4.8l0.5,3.6
			c0.4-1.3,1.1-2.3,1.9-3c0.9-0.7,1.8-1.1,2.9-1.1C228.6,89.5,229.2,89.6,229.7,89.8z"/>
		<path d="M246.9,101h-11.5c0.2,1.6,0.6,2.7,1.3,3.3s1.7,0.9,2.9,0.9c0.7,0,1.5-0.1,2.2-0.4c0.7-0.3,1.5-0.7,2.3-1.2l2.3,3.1
			c-2.2,1.7-4.6,2.6-7.2,2.6c-3,0-5.3-0.9-6.9-2.7c-1.6-1.8-2.4-4.2-2.4-7.1c0-1.9,0.3-3.6,1-5.1c0.7-1.5,1.7-2.7,3-3.6
			c1.3-0.9,2.9-1.3,4.7-1.3c2.7,0,4.8,0.8,6.3,2.5c1.5,1.7,2.3,4,2.3,7C247,99.7,247,100.4,246.9,101z M241.6,97.4
			c0-2.8-1.1-4.3-3-4.3c-1,0-1.7,0.4-2.2,1c-0.5,0.7-0.8,1.9-1,3.5h6.2V97.4z"/>
	</g>
	<g>
		<path class="st17" d="M1197.6,86.9c2.3,1.7,3.4,4.9,3.4,9.4c0,4.5-1.1,7.7-3.4,9.5c-2.2,1.8-5.1,2.7-8.7,2.7h-7.3V84.4h6.8
			C1192.3,84.4,1195.3,85.2,1197.6,86.9z M1187.5,88.5v15.9h1.9c1.9,0,3.3-0.6,4.3-1.8c1-1.2,1.5-3.3,1.5-6.3c0-2.1-0.2-3.7-0.7-4.8
			c-0.5-1.1-1.2-1.9-2-2.4c-0.8-0.4-1.9-0.6-3.1-0.6H1187.5z"/>
		<path class="st17" d="M1219.2,92c1.6,1.7,2.4,4.2,2.4,7.3c0,2-0.4,3.7-1.1,5.2c-0.7,1.5-1.8,2.6-3.2,3.4s-3,1.2-4.8,1.2
			c-2.8,0-5-0.9-6.7-2.6c-1.6-1.7-2.4-4.2-2.4-7.3c0-2,0.4-3.7,1.1-5.2c0.7-1.5,1.8-2.6,3.1-3.4c1.4-0.8,3-1.2,4.8-1.2
			C1215.3,89.4,1217.5,90.3,1219.2,92z M1210,94.9c-0.6,0.9-0.8,2.4-0.8,4.4c0,2,0.3,3.5,0.8,4.4c0.5,0.9,1.4,1.4,2.5,1.4
			c1.1,0,2-0.5,2.5-1.4c0.6-0.9,0.8-2.4,0.8-4.4c0-2-0.3-3.5-0.8-4.4c-0.5-0.9-1.4-1.4-2.5-1.4C1211.3,93.5,1210.5,94,1210,94.9z"/>
		<path class="st17" d="M1226,107.8c-0.9-0.9-1.3-2.2-1.3-3.9V82.6l5.5-0.6v21.6c0,0.8,0.3,1.2,0.9,1.2c0.3,0,0.6-0.1,0.9-0.2
			l1.1,3.9c-1,0.4-2.1,0.6-3.4,0.6C1228.2,109.2,1226.9,108.8,1226,107.8z"/>
		<path class="st17" d="M1249.8,92c1.6,1.7,2.4,4.2,2.4,7.3c0,2-0.4,3.7-1.1,5.2c-0.7,1.5-1.8,2.6-3.2,3.4s-3,1.2-4.8,1.2
			c-2.8,0-5-0.9-6.7-2.6c-1.6-1.7-2.4-4.2-2.4-7.3c0-2,0.4-3.7,1.1-5.2c0.7-1.5,1.8-2.6,3.1-3.4c1.4-0.8,3-1.2,4.8-1.2
			C1246,89.4,1248.2,90.3,1249.8,92z M1240.6,94.9c-0.6,0.9-0.8,2.4-0.8,4.4c0,2,0.3,3.5,0.8,4.4c0.5,0.9,1.4,1.4,2.5,1.4
			c1.1,0,2-0.5,2.5-1.4c0.6-0.9,0.8-2.4,0.8-4.4c0-2-0.3-3.5-0.8-4.4c-0.5-0.9-1.4-1.4-2.5-1.4C1242,93.5,1241.2,94,1240.6,94.9z"/>
		<path class="st17" d="M1267.5,89.8l-0.9,5.4c-0.7-0.2-1.3-0.2-1.7-0.2c-1.1,0-1.9,0.4-2.5,1.1c-0.6,0.8-1,1.9-1.3,3.4v9.2h-5.5V90
			h4.8l0.5,3.6c0.4-1.3,1.1-2.3,1.9-3c0.9-0.7,1.8-1.1,2.9-1.1C1266.3,89.5,1266.9,89.6,1267.5,89.8z"/>
		<path class="st17" d="M1284.6,101h-11.5c0.2,1.6,0.6,2.7,1.3,3.3s1.7,0.9,2.9,0.9c0.7,0,1.5-0.1,2.2-0.4s1.5-0.7,2.3-1.2l2.3,3.1
			c-2.2,1.7-4.6,2.6-7.2,2.6c-3,0-5.3-0.9-6.9-2.7c-1.6-1.8-2.4-4.2-2.4-7.1c0-1.9,0.3-3.6,1-5.1c0.7-1.5,1.7-2.7,3-3.6
			c1.3-0.9,2.9-1.3,4.7-1.3c2.7,0,4.8,0.8,6.3,2.5c1.5,1.7,2.3,4,2.3,7C1284.7,99.7,1284.7,100.4,1284.6,101z M1279.3,97.4
			c0-2.8-1-4.3-3-4.3c-1,0-1.7,0.4-2.2,1c-0.5,0.7-0.8,1.9-1,3.5h6.2V97.4z"/>
		<path class="st17" d="M1311.8,92c1.1,1.7,1.7,4.1,1.7,7.2c0,1.9-0.3,3.6-0.9,5.1c-0.6,1.5-1.5,2.7-2.6,3.5s-2.4,1.3-3.9,1.3
			c-1.9,0-3.4-0.6-4.5-1.9v8.5l-5.5,0.6V90h4.9l0.3,2.1c0.7-0.9,1.6-1.6,2.5-2c0.9-0.4,1.9-0.6,2.9-0.6
			C1309,89.4,1310.7,90.3,1311.8,92z M1307.8,99.3c0-2.2-0.2-3.7-0.7-4.6c-0.5-0.9-1.2-1.3-2.2-1.3c-0.6,0-1.2,0.2-1.8,0.6
			c-0.5,0.4-1,0.9-1.5,1.6v7.8c0.7,1.1,1.7,1.6,2.8,1.6C1306.7,105.2,1307.8,103.2,1307.8,99.3z"/>
		<path class="st17" d="M1322.1,81.1c0.6,0.6,0.9,1.3,0.9,2.3c0,0.9-0.3,1.7-0.9,2.3c-0.6,0.6-1.4,0.9-2.4,0.9c-1,0-1.7-0.3-2.3-0.9
			c-0.6-0.6-0.9-1.3-0.9-2.3c0-0.9,0.3-1.7,0.9-2.3c0.6-0.6,1.4-0.9,2.3-0.9C1320.7,80.2,1321.5,80.5,1322.1,81.1z M1322.5,90v18.6
			h-5.5V90H1322.5z"/>
		<path class="st17" d="M1342.6,108.6h-4.8l-0.2-2.3c-1.4,2-3.2,2.9-5.6,2.9c-1.7,0-3-0.5-3.9-1.5c-0.9-1-1.3-2.5-1.3-4.3V90h5.5
			v12.6c0,0.9,0.1,1.5,0.4,1.9c0.3,0.4,0.7,0.5,1.3,0.5c1.2,0,2.2-0.7,3-2.2V90h5.5V108.6z M1332.3,79.4l7.6,4.6l-1.5,2.8l-8.3-3.3
			L1332.3,79.4z"/>
		<path class="st17" d="M1362,86.7c-0.3,0.4-0.5,1-0.5,1.9V90h4.4l-0.6,3.9h-3.8v14.7h-5.5V93.9h-2.8V90h2.8v-1.6
			c0-1.9,0.6-3.4,1.8-4.6c1.2-1.2,3-1.8,5.3-1.8c1.8,0,3.5,0.4,5.1,1.2l-1.5,3.6c-0.9-0.5-1.9-0.7-2.9-0.7
			C1362.9,86.1,1362.3,86.3,1362,86.7z"/>
		<path class="st17" d="M1382,92c1.6,1.7,2.4,4.2,2.4,7.3c0,2-0.4,3.7-1.1,5.2c-0.7,1.5-1.8,2.6-3.2,3.4s-3,1.2-4.8,1.2
			c-2.8,0-5-0.9-6.7-2.6c-1.6-1.7-2.4-4.2-2.4-7.3c0-2,0.4-3.7,1.1-5.2c0.7-1.5,1.8-2.6,3.1-3.4c1.4-0.8,3-1.2,4.8-1.2
			C1378.2,89.4,1380.4,90.3,1382,92z M1372.8,94.9c-0.6,0.9-0.8,2.4-0.8,4.4c0,2,0.3,3.5,0.8,4.4c0.5,0.9,1.4,1.4,2.5,1.4
			c1.1,0,2-0.5,2.5-1.4c0.6-0.9,0.8-2.4,0.8-4.4c0-2-0.3-3.5-0.8-4.4c-0.5-0.9-1.4-1.4-2.5-1.4C1374.2,93.5,1373.4,94,1372.8,94.9z"
			/>
		<path class="st17" d="M1399.7,89.8l-0.9,5.4c-0.7-0.2-1.3-0.2-1.7-0.2c-1.1,0-1.9,0.4-2.5,1.1c-0.6,0.8-1,1.9-1.3,3.4v9.2h-5.5V90
			h4.8l0.5,3.6c0.4-1.3,1.1-2.3,1.9-3c0.9-0.7,1.8-1.1,2.9-1.1C1398.5,89.5,1399.1,89.6,1399.7,89.8z"/>
		<path class="st17" d="M1413.4,107.7c-0.7,0.5-1.5,0.8-2.4,1.1c-0.9,0.3-1.8,0.4-2.7,0.4c-4.1,0-6.1-2.3-6.1-6.7v-8.6h-2.6V90h2.6
			v-4l5.5-0.6V90h4.3l-0.6,3.9h-3.7v8.5c0,0.9,0.1,1.5,0.4,1.9c0.3,0.4,0.7,0.6,1.3,0.6c0.6,0,1.3-0.2,2-0.6L1413.4,107.7z"/>
		<path class="st17" d="M1430.8,101h-11.5c0.2,1.6,0.6,2.7,1.3,3.3s1.7,0.9,2.9,0.9c0.7,0,1.5-0.1,2.2-0.4s1.5-0.7,2.3-1.2l2.3,3.1
			c-2.2,1.7-4.6,2.6-7.2,2.6c-3,0-5.3-0.9-6.9-2.7c-1.6-1.8-2.4-4.2-2.4-7.1c0-1.9,0.3-3.6,1-5.1c0.7-1.5,1.7-2.7,3-3.6
			c1.3-0.9,2.9-1.3,4.7-1.3c2.7,0,4.8,0.8,6.3,2.5c1.5,1.7,2.3,4,2.3,7C1430.9,99.7,1430.8,100.4,1430.8,101z M1425.4,97.4
			c0-2.8-1-4.3-3-4.3c-1,0-1.7,0.4-2.2,1c-0.5,0.7-0.8,1.9-1,3.5h6.2V97.4z"/>
		<path class="st17" d="M1447.4,81.1c0.6,0.6,0.9,1.3,0.9,2.3c0,0.9-0.3,1.7-0.9,2.3c-0.6,0.6-1.4,0.9-2.4,0.9c-1,0-1.7-0.3-2.3-0.9
			c-0.6-0.6-0.9-1.3-0.9-2.3c0-0.9,0.3-1.7,0.9-2.3c0.6-0.6,1.4-0.9,2.3-0.9C1446,80.2,1446.8,80.5,1447.4,81.1z M1447.8,90v18.6
			h-5.5V90H1447.8z"/>
		<path class="st17" d="M1476.2,90.9c0.9,1,1.3,2.4,1.3,4.1v13.6h-5.5V96c0-1.7-0.5-2.5-1.6-2.5c-0.6,0-1.1,0.2-1.5,0.6
			c-0.4,0.4-0.9,1-1.3,1.8v12.7h-5.5V96c0-1.7-0.5-2.5-1.6-2.5c-0.6,0-1.1,0.2-1.5,0.6s-0.9,1-1.3,1.8v12.7h-5.5V90h4.8l0.4,2.2
			c0.7-0.9,1.5-1.6,2.4-2.1s1.9-0.7,3-0.7c1,0,2,0.3,2.7,0.8c0.8,0.5,1.3,1.2,1.7,2.2c0.7-1,1.6-1.7,2.5-2.2
			c0.9-0.5,1.9-0.7,3.1-0.7C1474.2,89.4,1475.3,89.9,1476.2,90.9z"/>
		<path class="st17" d="M1505.8,90.9c0.9,1,1.3,2.4,1.3,4.1v13.6h-5.5V96c0-1.7-0.5-2.5-1.6-2.5c-0.6,0-1.1,0.2-1.5,0.6
			c-0.4,0.4-0.9,1-1.3,1.8v12.7h-5.5V96c0-1.7-0.5-2.5-1.6-2.5c-0.6,0-1.1,0.2-1.5,0.6s-0.9,1-1.3,1.8v12.7h-5.5V90h4.8l0.4,2.2
			c0.7-0.9,1.5-1.6,2.4-2.1s1.9-0.7,3-0.7c1,0,2,0.3,2.7,0.8c0.8,0.5,1.3,1.2,1.7,2.2c0.7-1,1.6-1.7,2.5-2.2
			c0.9-0.5,1.9-0.7,3.1-0.7C1503.7,89.4,1504.9,89.9,1505.8,90.9z"/>
		<path class="st17" d="M1526.4,104.8c0.2,0.3,0.5,0.6,1,0.7l-1.2,3.6c-1.1-0.1-2.1-0.3-2.8-0.8c-0.7-0.4-1.3-1.1-1.7-1.9
			c-1.2,1.9-3.1,2.8-5.6,2.8c-1.8,0-3.3-0.5-4.4-1.6s-1.6-2.5-1.6-4.2c0-2,0.7-3.6,2.2-4.7c1.5-1.1,3.7-1.6,6.5-1.6h1.9v-0.8
			c0-1.1-0.2-1.8-0.7-2.3c-0.5-0.4-1.3-0.6-2.5-0.6c-0.6,0-1.3,0.1-2.2,0.3c-0.9,0.2-1.8,0.4-2.7,0.7l-1.3-3.6
			c1.2-0.4,2.4-0.8,3.6-1c1.2-0.2,2.4-0.4,3.4-0.4c2.7,0,4.6,0.5,5.8,1.6c1.2,1.1,1.9,2.7,1.9,4.9v7.2
			C1526.1,103.9,1526.2,104.4,1526.4,104.8z M1520.6,103.5v-3.3h-1.4c-1.3,0-2.2,0.2-2.8,0.7c-0.6,0.4-0.9,1.1-0.9,2.1
			c0,0.7,0.2,1.3,0.6,1.7c0.4,0.4,0.9,0.6,1.6,0.6C1519,105.3,1519.9,104.7,1520.6,103.5z"/>
		<path class="st17" d="M1547.2,91.1c-1.2,0.5-3,0.7-5.4,0.7c1.2,0.5,2.1,1.1,2.7,1.9c0.6,0.7,0.8,1.7,0.8,2.9
			c0,1.2-0.3,2.3-0.9,3.2c-0.6,0.9-1.5,1.7-2.7,2.2c-1.2,0.5-2.6,0.8-4.1,0.8c-0.7,0-1.5-0.1-2.1-0.2c-0.2,0.1-0.3,0.2-0.4,0.4
			c-0.1,0.2-0.2,0.4-0.2,0.6c0,0.3,0.1,0.6,0.4,0.8c0.3,0.2,0.8,0.3,1.6,0.3h2.8c1.4,0,2.7,0.2,3.7,0.7c1.1,0.5,1.9,1.1,2.5,1.9
			c0.6,0.8,0.9,1.7,0.9,2.8c0,1.9-0.8,3.4-2.5,4.5s-4.1,1.6-7.2,1.6c-2.3,0-4-0.2-5.4-0.7c-1.3-0.5-2.2-1.1-2.7-2
			c-0.5-0.9-0.8-1.9-0.8-3.3h5c0,0.6,0.1,1,0.3,1.3c0.2,0.3,0.6,0.6,1.2,0.7c0.6,0.2,1.4,0.2,2.5,0.2c1.5,0,2.6-0.2,3.1-0.5
			c0.6-0.4,0.9-0.9,0.9-1.6c0-0.6-0.2-1-0.7-1.3s-1.1-0.5-2-0.5h-2.7c-1.9,0-3.3-0.3-4.3-1c-0.9-0.7-1.4-1.6-1.4-2.6
			c0-0.7,0.2-1.3,0.6-2c0.4-0.6,0.9-1.2,1.6-1.6c-1.2-0.6-2-1.4-2.5-2.2c-0.5-0.9-0.8-1.9-0.8-3.1c0-2.1,0.7-3.7,2.2-5
			c1.5-1.2,3.5-1.8,5.9-1.8c1.9,0,3.4-0.1,4.7-0.6c1.3-0.4,2.6-1,4-1.9L1547.2,91.1z M1535.3,93.9c-0.5,0.5-0.8,1.3-0.8,2.3
			c0,1,0.2,1.8,0.8,2.3s1.2,0.8,2,0.8c0.9,0,1.6-0.3,2.1-0.8c0.5-0.5,0.7-1.3,0.7-2.4c0-2-0.9-3-2.8-3
			C1536.5,93.1,1535.8,93.4,1535.3,93.9z"/>
		<path class="st17" d="M1554.5,81.1c0.6,0.6,0.9,1.3,0.9,2.3c0,0.9-0.3,1.7-0.9,2.3c-0.6,0.6-1.4,0.9-2.4,0.9c-1,0-1.7-0.3-2.3-0.9
			c-0.6-0.6-0.9-1.3-0.9-2.3c0-0.9,0.3-1.7,0.9-2.3c0.6-0.6,1.4-0.9,2.3-0.9C1553.1,80.2,1553.9,80.5,1554.5,81.1z M1554.9,90v18.6
			h-5.5V90H1554.9z"/>
		<path class="st17" d="M1573.9,90.9c0.9,1,1.4,2.4,1.4,4.1v13.6h-5.5V96c0-0.9-0.1-1.6-0.4-1.9c-0.3-0.4-0.7-0.5-1.3-0.5
			c-1.1,0-2.2,0.8-3.2,2.4v12.7h-5.5V90h4.8l0.4,2.2c0.8-0.9,1.7-1.6,2.6-2.1c0.9-0.5,2-0.7,3.1-0.7
			C1571.8,89.4,1573,89.9,1573.9,90.9z"/>
		<path class="st17" d="M1594.5,104.8c0.2,0.3,0.5,0.6,1,0.7l-1.2,3.6c-1.1-0.1-2.1-0.3-2.8-0.8c-0.7-0.4-1.3-1.1-1.7-1.9
			c-1.2,1.9-3.1,2.8-5.6,2.8c-1.8,0-3.3-0.5-4.4-1.6s-1.6-2.5-1.6-4.2c0-2,0.7-3.6,2.2-4.7c1.5-1.1,3.7-1.6,6.5-1.6h1.9v-0.8
			c0-1.1-0.2-1.8-0.7-2.3c-0.5-0.4-1.3-0.6-2.5-0.6c-0.6,0-1.3,0.1-2.2,0.3c-0.9,0.2-1.8,0.4-2.7,0.7l-1.3-3.6
			c1.2-0.4,2.4-0.8,3.6-1c1.2-0.2,2.4-0.4,3.4-0.4c2.7,0,4.6,0.5,5.8,1.6c1.2,1.1,1.9,2.7,1.9,4.9v7.2
			C1594.2,103.9,1594.3,104.4,1594.5,104.8z M1588.8,103.5v-3.3h-1.4c-1.3,0-2.2,0.2-2.8,0.7c-0.6,0.4-0.9,1.1-0.9,2.1
			c0,0.7,0.2,1.3,0.6,1.7c0.4,0.4,0.9,0.6,1.6,0.6C1587.1,105.3,1588.1,104.7,1588.8,103.5z"/>
		<path class="st17" d="M1614.3,92c1.2,1.7,1.8,4.2,1.8,7.3c0,1.9-0.3,3.6-0.9,5.1c-0.6,1.5-1.4,2.7-2.6,3.5s-2.4,1.3-3.9,1.3
			c-1,0-1.9-0.2-2.7-0.6c-0.8-0.4-1.5-1-2.1-1.8l-0.3,1.8h-4.9v-26l5.5-0.6v9.9c0.6-0.8,1.3-1.4,2.2-1.8c0.9-0.4,1.8-0.7,2.9-0.7
			C1611.4,89.4,1613.1,90.3,1614.3,92z M1610.3,99.3c0-2.2-0.3-3.7-0.8-4.6c-0.5-0.8-1.3-1.3-2.2-1.3c-1.2,0-2.3,0.7-3.1,2.2v7.7
			c0.3,0.6,0.8,1,1.3,1.3c0.5,0.3,1,0.5,1.6,0.5C1609.3,105.2,1610.3,103.2,1610.3,99.3z"/>
		<path class="st17" d="M1624.6,81.1c0.6,0.6,0.9,1.3,0.9,2.3c0,0.9-0.3,1.7-0.9,2.3c-0.6,0.6-1.4,0.9-2.4,0.9c-1,0-1.7-0.3-2.3-0.9
			c-0.6-0.6-0.9-1.3-0.9-2.3c0-0.9,0.3-1.7,0.9-2.3c0.6-0.6,1.4-0.9,2.3-0.9C1623.2,80.2,1624,80.5,1624.6,81.1z M1625.1,90v18.6
			h-5.5V90H1625.1z"/>
		<path class="st17" d="M1630.6,107.8c-0.9-0.9-1.3-2.2-1.3-3.9V82.6l5.5-0.6v21.6c0,0.8,0.3,1.2,0.9,1.2c0.3,0,0.6-0.1,0.9-0.2
			l1.1,3.9c-1,0.4-2.1,0.6-3.4,0.6C1632.7,109.2,1631.5,108.8,1630.6,107.8z"/>
		<path class="st17" d="M1655.7,101h-11.5c0.2,1.6,0.6,2.7,1.3,3.3s1.7,0.9,2.9,0.9c0.7,0,1.5-0.1,2.2-0.4s1.5-0.7,2.3-1.2l2.3,3.1
			c-2.2,1.7-4.6,2.6-7.2,2.6c-3,0-5.3-0.9-6.9-2.7c-1.6-1.8-2.4-4.2-2.4-7.1c0-1.9,0.3-3.6,1-5.1c0.7-1.5,1.7-2.7,3-3.6
			c1.3-0.9,2.9-1.3,4.7-1.3c2.7,0,4.8,0.8,6.3,2.5c1.5,1.7,2.3,4,2.3,7C1655.8,99.7,1655.8,100.4,1655.7,101z M1650.4,97.4
			c0-2.8-1-4.3-3-4.3c-1,0-1.7,0.4-2.2,1c-0.5,0.7-0.8,1.9-1,3.5h6.2V97.4z"/>
	</g>
</g>
</svg>
